<svg width="309" height="204" viewBox="0 0 309 204" fill="none" xmlns="http://www.w3.org/2000/svg">
<mask id="mask0_119_5957" style="mask-type:luminance" maskUnits="userSpaceOnUse" x="148" y="0" width="161" height="141">
<path d="M148.277 0H309V140.102H148.277V0Z" fill="white"/>
</mask>
<g mask="url(#mask0_119_5957)">
<path d="M188.044 2.6252L149.047 70.2245C148.03 71.9829 148.144 74.1803 149.341 75.8249L187.844 128.79C190.511 132.448 194.641 134.76 199.158 135.099L265.602 140.088C267.569 140.238 269.452 139.241 270.439 137.529L308.208 72.0607C309.255 70.2495 309.1 67.9854 307.819 66.3353L267.841 14.8233C265.369 11.637 261.755 9.54792 257.765 9.00066L193.2 0.108351C191.13 -0.180558 189.091 0.819514 188.044 2.6252Z" fill="#5C1912"/>
</g>
<mask id="mask1_119_5957" style="mask-type:luminance" maskUnits="userSpaceOnUse" x="192" y="54" width="117" height="87">
<path d="M192.37 54.0483H309V140.102H192.37V54.0483Z" fill="white"/>
</mask>
<g mask="url(#mask1_119_5957)">
<path d="M238.434 54.146L192.825 133.202C194.75 134.274 196.903 134.93 199.153 135.099L265.597 140.088C267.564 140.238 269.447 139.241 270.434 137.53L308.203 72.0612C308.781 71.0639 308.956 69.9305 308.811 68.8359L238.434 54.146Z" fill="#9B1A2E"/>
</g>
<path d="M233.902 56.5072C235.069 58.0046 236.772 58.9935 238.655 59.2519L308.827 68.9137C308.727 67.9914 308.402 67.0941 307.81 66.3357L267.835 14.8181C265.363 11.6318 261.746 9.54275 257.76 8.99549L193.191 0.103185C192.235 -0.0273794 191.297 0.139298 190.449 0.505992L233.902 56.5072Z" fill="#CF363E"/>
<path d="M253.079 28.7301C247.148 25.2965 240.747 24.3881 238.739 27.8689C237.133 30.6496 240.719 36.4362 246.656 39.867C252.587 43.2978 258.987 44.2062 260.996 40.7281C262.596 37.939 259.01 32.1553 253.079 28.7301ZM210.956 52.9068C214.931 50.5594 219.262 52.1345 220.532 57.5099C221.801 62.8881 219.64 68.144 215.262 71.1886C211.287 73.536 206.956 71.9581 205.686 66.5828C204.417 61.2074 206.978 55.2542 210.956 52.9068ZM253.243 77.3419C253.284 72.7249 249.753 69.7552 244.472 71.3442C239.183 72.936 235.719 77.4308 235.275 82.7478C235.233 87.3648 238.764 90.3317 244.045 88.7427C249.331 87.1592 253.201 81.9644 253.243 77.3419ZM262.229 98.3267C262.271 93.7097 258.74 90.7428 253.459 92.3318C248.17 93.9208 244.706 98.4184 244.261 103.733C244.22 108.35 247.75 111.319 253.031 109.73C258.312 108.141 262.188 102.944 262.229 98.3267ZM271.552 117.617C271.594 112.997 268.063 110.03 262.782 111.619C257.496 113.208 254.029 117.706 253.584 123.023C253.543 127.64 257.073 130.607 262.354 129.018C267.635 127.429 271.505 122.234 271.552 117.617ZM188.285 89.8094C192.26 87.462 196.591 89.0371 197.861 94.4153C199.13 99.7907 196.969 105.047 192.591 108.091C188.616 110.439 184.285 108.864 183.015 103.485C181.751 98.1045 184.307 92.1568 188.285 89.8094ZM188.777 23.588C192.752 21.2406 197.083 22.8185 198.352 28.1939C199.622 33.5693 197.464 38.8252 193.083 41.8699C189.107 44.22 184.777 42.6422 183.507 37.2668C182.246 31.8831 184.802 25.9354 188.777 23.588ZM164.386 61.6296C168.361 59.2822 172.692 60.8573 173.962 66.2355C175.231 71.6109 173.07 76.8668 168.692 79.9115C164.717 82.2589 160.386 80.6838 159.116 75.3056C157.847 69.9302 160.411 63.977 164.386 61.6296Z" fill="white"/>
<mask id="mask2_119_5957" style="mask-type:luminance" maskUnits="userSpaceOnUse" x="0" y="60" width="161" height="144">
<path d="M0 60.271H160.011V203.034H0V60.271Z" fill="white"/>
</mask>
<g mask="url(#mask2_119_5957)">
<path d="M1.30269 132.499L40.2999 200.098C41.3167 201.857 43.2724 202.857 45.292 202.64L110.372 195.753C114.869 195.278 118.936 192.845 121.486 189.1L159.028 134.005C160.139 132.374 160.22 130.249 159.231 128.537L121.47 63.0634C120.422 61.2521 118.389 60.2521 116.319 60.541L51.7452 69.4333C47.7588 69.9805 44.1446 72.0696 41.6723 75.2531L1.69439 126.768C0.419297 128.424 0.26373 130.688 1.30269 132.499Z" fill="#5C1912"/>
</g>
<path d="M71.0796 114.583L116.686 193.639C118.575 192.508 120.222 190.966 121.492 189.105L159.033 134.009C160.147 132.379 160.225 130.254 159.239 128.542L121.469 63.0627C120.891 62.0626 120 61.3487 118.977 60.9209L71.0796 114.583Z" fill="#9B1A2E"/>
<mask id="mask3_119_5957" style="mask-type:luminance" maskUnits="userSpaceOnUse" x="0" y="60" width="120" height="70">
<path d="M0 60.271H119.475V129.784H0V60.271Z" fill="white"/>
</mask>
<g mask="url(#mask3_119_5957)">
<path d="M70.8583 119.69C72.7389 119.431 74.4474 118.442 75.6086 116.945L119.056 60.9521C118.209 60.5826 117.27 60.4159 116.314 60.5465L51.7458 69.4333C47.7594 69.9805 44.1452 72.0696 41.6728 75.2531L1.69496 126.773C1.10603 127.54 0.781008 128.435 0.678223 129.351L70.8583 119.69Z" fill="#CF363E"/>
</g>
<path d="M56.4016 89.1787C50.4706 92.6095 46.4842 97.696 48.4871 101.177C50.0928 103.958 56.8905 103.741 62.827 100.316C68.758 96.8848 72.7472 91.7984 70.7443 88.3176C69.1358 85.5368 62.3409 85.7535 56.4016 89.1787ZM56.2654 137.779C56.221 133.162 59.7546 130.193 65.0355 131.782C70.322 133.371 73.7861 137.868 74.2306 143.185C74.2751 147.802 70.7443 150.769 65.4605 149.18C60.1796 147.597 56.3127 142.402 56.2654 137.779ZM98.5574 113.344C94.5821 110.994 90.2512 112.572 88.9817 117.947C87.7121 123.326 89.8706 128.579 94.2515 131.626C98.2268 133.974 102.558 132.396 103.827 127.02C105.097 121.645 102.533 115.692 98.5574 113.344ZM142.558 117.611C138.582 115.264 134.252 116.842 132.982 122.217C131.713 127.593 133.871 132.849 138.252 135.893C142.227 138.243 146.558 136.665 147.828 131.29C149.092 125.912 146.533 119.959 142.558 117.611ZM48.3954 160.142C48.3538 155.525 51.8846 152.558 57.1655 154.147C62.4548 155.736 65.9189 160.234 66.3634 165.548C66.4051 170.168 62.8742 173.135 57.5933 171.546C52.3124 169.957 48.4454 164.762 48.3954 160.142ZM40.5282 182.508C40.4865 177.891 44.0173 174.924 49.2983 176.513C54.5875 178.102 58.0517 182.599 58.4962 187.914C58.5378 192.531 55.007 195.5 49.7261 193.911C44.4451 192.319 40.5782 187.125 40.5282 182.508Z" fill="white"/>
</svg>
