<svg width="25" height="25" viewBox="0 0 25 25" fill="none" xmlns="http://www.w3.org/2000/svg">
    <path d="M12.502 5.01882C13.7678 3.90709 15.4165 3.33138 17.0992 3.41348C18.7819 3.49557 20.3667 4.22904 21.5183 5.45871C22.6699 6.68839 23.298 8.31782 23.2696 10.0023C23.2413 11.6868 22.5589 13.2942 21.3666 14.4844L15.9239 19.9272L12.4999 23.349L4.91659 15.7667L3.63534 14.4834C2.44344 13.2929 1.76134 11.6855 1.73332 10.0012C1.7053 8.31684 2.33356 6.68764 3.4852 5.45819C4.63684 4.22874 6.22156 3.49547 7.90414 3.41347C9.58673 3.33147 11.2363 3.90718 12.502 5.01882Z" fill="#9B1A2E"/>
    </svg>
    